<?xml version="1.0" encoding="iso-8859-1"?>
<!-- Uploaded to: SVG Repo, www.svgrepo.com, Generator: SVG Repo Mixer Tools -->
<svg height="800px" width="800px" version="1.1" id="Layer_1" xmlns="http://www.w3.org/2000/svg" xmlns:xlink="http://www.w3.org/1999/xlink" 
	 viewBox="0 0 512.003 512.003" xml:space="preserve">
<circle style="fill:#CCF7FF;" cx="256.002" cy="256.002" r="256.002"/>
<g>
	<path style="fill:#293133;" d="M459.433,100.596c-8.833-11.544-27.197-7.365-30.446,6.804l-20.012,87.282
		c-0.142,0.62-0.239,1.242-0.311,1.866l-72.823,32.155c-0.096-0.072-0.185-0.153-0.283-0.224l-69.401-50.423
		c-0.578-0.419-1.179-0.786-1.792-1.125V91.834c0.231-0.128,0.464-0.253,0.69-0.393l76.279-46.94
		c12.402-7.632,10.429-26.378-3.364-31.049C312.239,4.741,284.678,0,256.001,0s-56.239,4.741-81.971,13.454
		c-13.793,4.671-15.766,23.416-3.364,31.049l76.279,46.939c0.228,0.139,0.46,0.264,0.691,0.393v85.095
		c-0.612,0.339-1.215,0.706-1.791,1.125l-69.401,50.423c-0.098,0.071-0.186,0.151-0.283,0.224l-72.823-32.154
		c-0.072-0.623-0.17-1.246-0.311-1.866L83.013,107.4c-3.249-14.168-21.613-18.347-30.446-6.804C19.595,143.686,0,197.552,0,256.001
		c0,0.117,0,0.234,0,0.351c0.021,14.378,16.983,22.1,28.045,12.917l68.941-57.237l72.409,31.972c0.115,1.271,0.362,2.543,0.77,3.794
		l26.509,81.585c0.235,0.723,0.525,1.416,0.847,2.089l-45.526,50.915c-0.715-0.161-1.443-0.283-2.184-0.352l-89.085-8.357
		c-14.531-1.363-24.202,14.854-15.948,26.891c31.334,45.694,77.099,80.693,130.739,98.443c13.871,4.591,26.803-9.159,21.465-22.761
		l-32.477-82.756l46.749-52.283c0.611,0.066,1.228,0.112,1.854,0.112h85.785c0.626,0,1.242-0.046,1.854-0.112l46.749,52.283
		l-32.477,82.756c-5.338,13.601,7.593,27.351,21.465,22.761c53.64-17.752,99.405-52.75,130.739-98.443
		c8.253-12.037-1.418-28.254-15.948-26.891l-89.084,8.357c-0.742,0.07-1.47,0.192-2.185,0.352l-45.526-50.915
		c0.32-0.674,0.611-1.366,0.847-2.089l26.509-81.585c0.407-1.251,0.655-2.523,0.77-3.793l72.409-31.972l68.941,57.236
		c11.062,9.184,28.025,1.461,28.046-12.917c0-0.117,0-0.234,0-0.351C512,197.552,492.405,143.686,459.433,100.596z"/>
	<path style="fill:#293133;" d="M451.275,373.679l-49.745,4.667l3.615,4.043c0.715-0.161,1.443-0.283,2.185-0.352l55.64-5.22
		C459.792,374.52,455.767,373.257,451.275,373.679z"/>
	<path style="fill:#293133;" d="M379.589,227.673l35.424-15.641l1.292,1.072l37.497-16.557c0.072-0.623,0.17-1.246,0.311-1.866
		l17.565-76.61c-3.846-5.999-7.928-11.833-12.246-17.476c-8.833-11.544-27.197-7.365-30.446,6.804l-20.012,87.282
		c-0.142,0.62-0.239,1.242-0.311,1.866l-44.731,19.75L379.589,227.673z"/>
	<path style="fill:#293133;" d="M360.158,476.253l32.477-82.756l-11.81-13.209l-18.634,1.748c-0.742,0.07-1.47,0.192-2.185,0.352
		l-36.718-41.064h-22.443l46.65,52.173l-32.477,82.756c-5.338,13.601,7.593,27.351,21.465,22.761
		c8.191-2.711,16.196-5.829,23.997-9.321C358.657,485.709,358.305,480.973,360.158,476.253z"/>
	<path style="fill:#293133;" d="M430.686,225.043l53.268,44.225c11.062,9.184,28.025,1.461,28.046-12.917c0-0.117,0-0.234,0-0.351
		c0-0.311-0.009-0.62-0.01-0.931l-51.837-43.037L430.686,225.043z"/>
	<path style="fill:#293133;" d="M215.304,247.798c-0.407-1.251-0.655-2.523-0.77-3.794l-36.984-16.331l-1.108,0.805
		c-0.098,0.071-0.186,0.151-0.283,0.224l-35.326-15.598l-14.38,11.938l42.941,18.961c0.115,1.271,0.362,2.543,0.77,3.794
		l26.509,81.585c0.235,0.723,0.525,1.416,0.847,2.089l-41.911,46.872l20.705,1.942l34.939-39.074
		c0.611,0.066,1.228,0.112,1.854,0.112h20.743l8.808-9.851c-0.32-0.674-0.611-1.366-0.847-2.089L215.304,247.798z"/>
	<path style="fill:#293133;" d="M256.294,341.323h1.953c-0.626,0-1.242-0.046-1.854-0.112L256.294,341.323z"/>
</g>
<g style="opacity:0.15;">
	<path style="fill:#293133;" d="M45.203,256.001c0-133.767,102.603-243.551,233.398-254.996C271.152,0.352,263.618,0,256.001,0
		C114.616,0,0,114.616,0,256.001S114.615,512,255.999,512c7.618,0,15.153-0.352,22.601-1.005
		C147.806,499.552,45.203,389.768,45.203,256.001z"/>
</g>
</svg>